<svg width="348" height="74" viewBox="0 0 348 74" fill="none" xmlns="http://www.w3.org/2000/svg">
<g clip-path="url(#clip0_1_4)">
<path d="M21.0357 0.0487671H37.311V14.4216H19.979C16.8507 14.4216 14.4786 15.5673 12.8628 17.8589C10.6622 20.154 8.97819 24.5835 7.81075 31.1473C7.57473 33.0301 7.44501 34.9596 7.42402 36.8996C7.42402 42.473 8.47254 47.714 10.5696 52.6224C11.9422 55.2573 13.2312 57.0012 14.4369 57.8544C15.7587 59.0434 17.5733 59.6381 19.881 59.6381H37.311V74.0054H20.6981C16.4512 74.0054 13.3058 72.9788 11.2613 70.9258C6.69142 66.95 3.41785 60.4442 1.44065 51.408C0.47553 46.8479 -0.0145959 41.9454 -5.17587e-05 36.9973C-5.17587e-05 25.9878 2.1914 16.5902 6.57431 8.80473C9.44299 4.47102 12.0375 1.912 14.3579 1.12767C15.5453 0.412017 17.7713 0.0523815 21.0357 0.0487671ZM17.8901 29.9167H37.311V44.1321H17.8901V29.9167Z" fill="white"/>
<path d="M61.623 34.2973V44.9996H42.777V34.2973H61.623Z" fill="white"/>
<path d="M63.2053 0.102966H83.8816C91.3728 0.102966 96.5719 6.61978 99.4787 19.6534C100.192 23.3894 100.55 27.3568 100.535 31.3533C100.535 40.0281 98.8341 47.6183 95.4316 54.1243C93.3346 57.8182 90.7646 60.3157 87.7217 61.6168C86.5435 61.9474 85.3545 62.1015 84.1648 62.0779L70.6566 62.3869V73.9837H63.1535V47.7754H83.5792C86.2447 47.7754 88.1956 46.7833 89.4319 44.7991C91.0134 42.7821 92.1481 39.5291 92.8363 35.04C92.9556 34.0114 93.024 32.9616 93.0405 31.9063V30.3612C93.0405 26.4937 92.2072 22.7311 90.5404 19.0733C88.8047 16.0336 86.8801 14.5119 84.7668 14.5083H63.2053V0.102966Z" fill="white"/>
<path d="M104.397 0.102966H111.873V35.0508C111.873 44.8351 113.755 51.9502 117.519 56.3959C119.169 58.5646 121.36 59.6489 124.093 59.6489H141.777V74.0163H124.346C119.626 74.0163 115.853 72.0481 113.028 68.1121C112.241 67.3168 111.06 65.3958 109.482 62.3489C107.437 57.7659 106.054 53.1483 105.331 48.4966C104.714 44.9725 104.404 39.925 104.403 33.354L104.397 0.102966Z" fill="white"/>
<path d="M165.857 0H183.015V74H175.571V14.4216L168.921 14.4704H167.323C163.609 14.4704 161.546 14.7794 161.134 15.3975C158.885 16.6329 156.906 19.3221 155.508 23.042C153.858 27.7406 153.032 32.4105 153.032 37.0516C153.032 42.7984 154.149 48.0845 156.385 52.9098C157.881 55.7509 159.171 57.4603 160.252 58.0387C161.341 59.123 163.206 59.6652 165.845 59.6652H171.021V73.9837H164.822C160.216 73.9837 156.324 71.5711 153.143 66.7458C150.842 63.1314 149.304 59.8477 148.531 56.8947C146.604 50.8079 145.642 44.5823 145.643 38.2171V36.0486C145.643 27.157 147.319 18.9974 150.67 11.5698C152.697 7.65898 154.355 5.18851 155.644 4.15841C156.867 2.90235 158.155 1.92045 159.486 1.23071C160.946 0.410239 163.07 0 165.857 0Z" fill="white"/>
<path d="M201.918 74V61.8879C198.924 60.294 196.125 57.499 193.693 53.6742C191.649 50.0163 190.317 46.9712 189.698 44.5389C188.838 41.7895 188.171 38.8201 187.713 35.7124C187.167 32.2931 186.896 27.6395 186.896 21.7516V0.102966H194.372V22.4239C194.372 28.9298 195.007 33.943 196.278 37.4635C196.534 38.5912 197.358 40.3875 198.75 42.8526C200.675 46.0041 203.09 47.727 205.582 47.727C208.074 47.727 210.489 46.0041 212.415 42.8526C213.807 40.384 214.632 38.5875 214.89 37.4635C216.161 33.9393 216.795 28.9263 216.795 22.4239V0.102966H224.271V21.757C224.271 27.6449 224 32.2985 223.454 35.7178C223.014 38.8374 222.345 41.8112 221.47 44.5443C220.852 46.973 219.529 50.0183 217.501 53.6796C215.058 57.495 212.252 60.287 209.252 61.8879V74H201.918Z" fill="white"/>
<path d="M249.167 0.0487671H265.434V14.4215H248.104C244.978 14.4215 242.607 15.5673 240.991 17.8589C238.791 20.154 237.106 24.5835 235.939 31.1473C235.703 33.0301 235.574 34.9596 235.553 36.8996C235.553 42.473 236.599 47.714 238.695 52.6224C240.069 55.2573 241.359 57.0012 242.562 57.8544C243.886 59.0508 245.702 59.6507 248.009 59.6544H265.439V74.0217H248.826C244.584 74.0217 241.438 72.9951 239.392 70.9421C234.821 66.9663 231.547 60.4602 229.571 51.4243C228.604 46.862 228.113 41.955 228.128 37.0027C228.128 25.9932 230.319 16.5956 234.7 8.81013C237.574 4.47282 240.171 1.912 242.492 1.12767C243.678 0.412017 245.903 0.0523815 249.167 0.0487671ZM246.024 29.9167H265.434V44.1321H246.024V29.9167Z" fill="white"/>
<path d="M269.377 0.0487671H293.248C297.467 0.0487671 300.767 2.56261 303.148 7.59027C304.069 9.19695 304.823 11.1499 305.365 13.3372C306.249 16.685 306.725 20.399 306.756 24.1805V26.284C306.756 31.7058 305.576 36.9919 303.215 42.1425C301.704 45.0339 300.329 46.881 299.092 47.6834C302.219 54.3266 303.782 63.1025 303.782 74.0108H296.283V72.8831C296.283 64.8084 294.641 58.3929 291.359 53.6362C289.484 51.0013 287.033 49.6838 284.005 49.6838H269.377V35.4087H293.711C296.375 35.4087 298.179 32.7919 299.126 27.5581C299.229 26.4737 299.297 25.6065 299.332 24.8906C299.332 21.9811 298.722 19.3462 297.502 16.986C296.56 15.4212 295.377 14.5517 294.15 14.5246C294.15 14.389 293.79 14.3185 293.06 14.3185H269.367L269.377 0.0487671Z" fill="white"/>
<path d="M322.429 0.102977H347.458V15.2836H322.195C320.222 15.2836 319.011 17.2155 318.562 21.0793V22.1636C318.562 24.4552 319.207 26.3709 320.496 27.9106C320.889 28.2184 321.309 28.3748 321.732 28.3713H334.437C337.706 28.3713 339.922 29.0383 341.088 30.3721C343.977 32.9418 345.974 36.8599 347.079 42.1262C347.678 45.1511 347.993 48.3686 348.009 51.6194C348.009 59.0073 346.272 65.2332 342.801 70.297C341.699 71.6576 340.499 72.6796 339.244 73.3276C338.247 73.7723 336.589 73.9946 334.269 73.9946H310.657L310.629 58.8139H335.995C338.126 58.8139 339.489 56.7267 340.08 52.5518L340.132 51.1695C340.132 48.2236 339.406 45.9646 337.954 44.3923C337.334 43.8031 336.653 43.5221 335.968 43.5737H321.714C317.984 43.5737 314.873 40.3206 312.383 33.8148C311.343 30.5405 310.778 26.7581 310.749 22.8847V20.8787C310.749 13.2884 312.605 7.28484 316.318 2.86801C317.849 1.02104 319.886 0.0993625 322.429 0.102977Z" fill="white"/>
</g>
<defs>
<clipPath id="clip0_1_4">
<rect width="348" height="74" fill="white"/>
</clipPath>
</defs>
</svg>
